<?xml version="1.0" encoding="UTF-8" standalone="no"?>
<svg
   width="8192"
   height="8192"
   version="1.1"
   id="svg106"
   sodipodi:docname="T_Regions_Map.svg"
   inkscape:version="1.4 (86a8ad7, 2024-10-11)"
   xml:space="preserve"
   xmlns:inkscape="http://www.inkscape.org/namespaces/inkscape"
   xmlns:sodipodi="http://sodipodi.sourceforge.net/DTD/sodipodi-0.dtd"
   xmlns:xlink="http://www.w3.org/1999/xlink"
   xmlns="http://www.w3.org/2000/svg"
   xmlns:svg="http://www.w3.org/2000/svg"
   xmlns:rdf="http://www.w3.org/1999/02/22-rdf-syntax-ns#"
   xmlns:cc="http://creativecommons.org/ns#"
   xmlns:dc="http://purl.org/dc/elements/1.1/"
   xmlns:www="http://www.prognoz.ru"><sodipodi:namedview
   pagecolor="#ffffff"
   bordercolor="#666666"
   borderopacity="1"
   objecttolerance="10"
   gridtolerance="10"
   guidetolerance="10"
   inkscape:pageopacity="0"
   inkscape:pageshadow="2"
   inkscape:window-width="1920"
   inkscape:window-height="1009"
   id="namedview108"
   showgrid="false"
   inkscape:zoom="0.90509668"
   inkscape:cx="4653.6465"
   inkscape:cy="3233.3563"
   inkscape:window-x="-8"
   inkscape:window-y="-8"
   inkscape:window-maximized="1"
   inkscape:current-layer="svg106"
   inkscape:showpageshadow="2"
   inkscape:pagecheckerboard="0"
   inkscape:deskcolor="#d1d1d1"
   showguides="true" /><metadata
   id="metadata112"><rdf:RDF><cc:Work
       rdf:about=""><dc:format>image/svg+xml</dc:format><dc:type
         rdf:resource="http://purl.org/dc/dcmitype/StillImage" /></cc:Work></rdf:RDF></metadata>
           
           

  <www:MetaInfo><www:Geo>
    <www:GeoItem
   X="0"
   Y="0"
   Latitude="0"
   Longitude="0" />
    <www:GeoItem
   X="8192"
   Y="8192"
   Latitude="8192"
   Longitude="8192" />
  </www:Geo></www:MetaInfo>

           
           <defs
   id="defs110" /><path
   style="fill:red;fill-opacity:1;stroke:none;stroke-width:3.77953;stroke-dasharray:none;stroke-opacity:1"
   d="M 2129.8578,1642.4544 L 2285.3991,1847.7573 L 2079.6655,1986.518 V 1986.518 L 2534.8661,2295.331 L 2818.5164,2114.6363 L 3005.3478,1983.5215 L 3179.903,1840.088 L 2993.028,1595.8924 L 2982.038,1423.8395 L 2892.2005,1348.363 L 2704.9956,1338.4759 L 2207.8029,1338.803 L 2139.8829,1396.64 L 2251.7892,1567.1586 Z"
   id="prypiat"
   inkscape:connector-curvature="0"
   sodipodi:nodetypes="cccccccccccccccc"
   inkscape:label="pripyat" /><path
   style="fill:yellow;fill-opacity:1;stroke:none;stroke-width:3.77953;stroke-dasharray:none;stroke-opacity:1"
   d="M 3042.9321,2473.8437 L 3502.7485,2275.0173 V 2275.0173 L 4460.52,2275.5132 V 2275.5132 L 4463.1978,2136.8015 L 4453.7263,1926.3116 L 4363.0162,1768.9773 L 4231.0564,1713.0031 L 3814.5447,1721.7604 L 3660.8113,1771.947 L 3586.4912,1753.8621 L 3325.7481,1733.4638 L 3179.903,1840.088 L 3006.4378,1983.2415 L 2818.5164,2114.6363 Z"
   id="generators"
   inkscape:connector-curvature="0"
   sodipodi:nodetypes="ccccccccccccccccc" /><path
   style="fill:lime;fill-opacity:1;stroke:none;stroke-width:3.77953;stroke-dasharray:none;stroke-opacity:1"
   d="M 2577.2878,2635.6115 L 2760.8178,2512.9815 V 2512.9815 L 3042.9321,2473.8437 L 2818.5164,2114.6363 L 2534.8661,2295.331 L 2079.6655,1986.518 L 1893.9678,2065.7915 L 1788.6778,2183.3415 L 1523.4378,2645.2615 L 1551.7478,2727.0715 Z"
   id="jupiter"
   inkscape:connector-curvature="0"
   sodipodi:nodetypes="cccccccccccc"><title
     id="title156">jupiter</title></path><path
   style="fill:red;fill-opacity:1;stroke:none;stroke-width:3.77953;stroke-dasharray:none;stroke-opacity:1"
   d="M 3042.9321,2473.8437 L 3332.108,2891.2088 L 3332.6177,3076.9344 L 4577.5167,3076.4077 V 3076.4077 L 4664.3962,3063.8307 L 4707.2251,3022.2561 L 4706.8652,2275.8377 L 4460.52,2275.5132 L 3502.7485,2275.0173 Z"
   id="CNPP"
   inkscape:connector-curvature="0"
   sodipodi:nodetypes="ccccccccccc" /><path
   style="fill:aqua;fill-opacity:1;stroke:none;stroke-width:3.77953;stroke-dasharray:none;stroke-opacity:1"
   d="M 1619.6278,3221.1615 L 1788.2678,3108.8315 L 1944.729,3074.2872 L 2179.7833,3106.9888 L 2341.3292,3136.8388 L 2623.5278,3065.6015 L 2801.9778,2971.7015 L 3060.472,2953.3905 L 3332.108,2891.2088 L 3042.9321,2473.8437 V 2473.8437 V 2473.8437 V 2473.8437 L 2760.8178,2512.9815 V 2512.9815 L 2577.2878,2635.6115 L 1551.7478,2727.0715 L 1544.7878,2887.1915 L 1453.4991,2965.0601 L 1450.242,3023.9147 L 1437.1992,3078.5331 L 1415.1676,3144.2056 L 1416.8492,3276.07 Z"
   id="yanov"
   inkscape:connector-curvature="0"
   sodipodi:nodetypes="cccccccccccccccccccccccc" /><path
   style="fill:yellow;fill-opacity:1;stroke:none;stroke-width:3.77953;stroke-dasharray:none;stroke-opacity:1"
   d="M 1419.6078,3404.5815 L 1427.5969,3518.2373 L 1451.0598,3618.4945 L 1557.6055,3793.4383 L 1981.6249,3579.65 L 2780.7693,3580.2143 L 3241.652,3579.7788 L 3438.2049,3544.2931 L 3372.0892,3356.4523 L 3332.1005,3106.6201 L 3332.6177,3076.9344 L 3332.108,2891.2088 L 3060.472,2953.3905 L 2801.9778,2971.7015 L 2623.5278,3065.6015 L 2341.3292,3136.8388 L 2179.7833,3106.9888 L 1944.729,3074.2872 L 1788.2678,3108.8315 L 1619.6278,3221.1615 L 1416.8492,3276.07 Z"
   id="red_forest"
   inkscape:connector-curvature="0"
   sodipodi:nodetypes="cccccccccccccccccccccc" /><path
   style="fill:yellow;fill-opacity:1;stroke:none;stroke-width:3.77953;stroke-dasharray:none;stroke-opacity:1"
   d="M 4578.4678,3490.5115 V 3490.5115 V 3490.5115 V 3490.5115 L 5667.4228,3970.3888 L 5775.9733,3989.0416 L 5827.24,3812.1328 L 5931.6792,3742.7816 L 5956.1882,3664.578 L 5808.2689,3445.434 L 5758.3678,3327.2315 L 5636.3678,3246.6315 L 5324.5878,3182.4215 L 5207.0778,3134.7815 L 5137.0729,3064.5455 L 5116.5078,3022.6615 L 4707.2251,3022.2561 L 4664.3962,3063.8307 L 4577.5167,3076.4077 Z"
   id="cooling_towers"
   inkscape:connector-curvature="0"
   sodipodi:nodetypes="cccccccccccccccccccc" /><path
   style="fill:lime;fill-opacity:1;stroke:none;stroke-width:3.77953;stroke-dasharray:none;stroke-opacity:1"
   d="M 3332.1005,3106.6202 L 3372.0892,3356.4523 L 3438.2049,3544.2931 V 3544.2931 L 3583.0478,3580.6115 V 3580.6115 L 4578.2578,3579.3515 L 4578.4678,3490.5115 L 4577.5167,3076.4077 L 3332.6177,3076.9344 Z"
   id="iron_forest"
   inkscape:connector-curvature="0"
   sodipodi:nodetypes="ccccccccccc" /><path
   style="fill:aqua;fill-opacity:1;stroke:none;stroke-width:3.77953;stroke-dasharray:none;stroke-opacity:1"
   d="M 4578.2578,3579.3515 L 4578.2178,4610.8315 L 5414.3276,4612.6488 L 5889.8891,4573.0072 L 5737.1959,4285.0511 L 5708.0314,4177.9221 L 5775.9733,3989.0416 L 5667.4228,3970.3888 L 4578.4678,3490.5115 Z"
   id="cement_factory"
   inkscape:connector-curvature="0"
   sodipodi:nodetypes="cccccccccc" /><path
   style="fill:aqua;fill-opacity:1;stroke:none;stroke-width:3.77953;stroke-dasharray:none;stroke-opacity:1"
   d="M 3394.0978,4604.2499 L 3517.9306,4548.0373 L 3582.3886,4431.3712 L 3583.0478,3580.6115 L 3438.2049,3544.2931 L 3241.652,3579.7788 L 2780.7693,3580.2143 V 3580.2143 L 2588.2378,4082.4615 L 2565.8728,4604.449 Z"
   id="rostok"
   inkscape:connector-curvature="0"
   sodipodi:nodetypes="ccccccccccc" /><path
   style="fill:red;fill-opacity:1;stroke:none;stroke-width:3.77953;stroke-dasharray:none;stroke-opacity:1"
   d="M 1660.2933,3927.2036 L 1759.2957,3951.0454 L 1868.24,3983.0411 L 1881.8154,4097.8249 L 1868.5788,4259.9003 L 1773.5964,4347.3296 L 1832.3478,4438.8915 L 1870.7478,4506.8015 L 1906.3078,4603.3915 L 2565.8728,4604.449 L 2588.2378,4082.4615 L 2780.7693,3580.2143 L 1981.6249,3579.65 L 1557.6055,3793.4383 Z"
   id="yantar"
   inkscape:connector-curvature="0"
   sodipodi:nodetypes="ccccccccccccccc" /><path
   style="fill:red;fill-opacity:1;stroke:none;stroke-width:3.77953;stroke-dasharray:none;stroke-opacity:1"
   d="M 3582.3886,4431.3712 L 3517.9306,4548.0373 L 3394.0978,4604.2499 L 3394.0678,4848.2815 L 3423.2678,4904.0915 L 3473.3778,4994.4315 L 3514.1052,4973.6423 L 3538.6896,4975.7983 L 3590.3929,5058.7347 L 3631.1029,5075.5832 L 3677.4704,5076.1216 L 3761.0946,5063.8583 L 3829.3278,5112.5915 L 3885.2978,5106.4315 L 3956.6278,5106.6015 L 4060.0978,5139.7515 L 4174.0978,5135.2115 L 4234.2578,5152.5115 L 4372.5578,5155.8915 V 5155.8915 L 4523.1778,5079.8715 V 5079.8715 L 4578.3078,5036.9715 L 4578.2178,4610.8315 L 4578.2578,3579.3515 L 3583.0478,3580.6115 Z"
   id="garbage"
   inkscape:connector-curvature="0"
   sodipodi:nodetypes="ccccccccccccccccccccccccccc" /><path
   style="fill:yellow;fill-opacity:1;stroke:none;stroke-width:3.77953;stroke-dasharray:none;stroke-opacity:1"
   d="M 458.34551,4407.6144 L 491.60256,4489.3795 L 455.76584,4633.0433 L 425.50238,4822.7629 L 402.1593,4894.8329 L 418.63661,5031.3746 L 454.9873,5125.5754 L 559.99884,5127.2915 L 670.82584,5180.9715 L 727.0602,5349.1839 L 795.88285,5414.8687 L 880.70415,5449.0996 V 5449.0996 L 1180.8878,5409.8715 L 1653.1678,5408.4015 L 1655.1378,5229.4615 L 1720.6178,5096.9115 L 1733.7278,4793.4215 L 1906.3078,4603.3915 V 4603.3915 L 1870.7478,4506.8015 L 1832.3478,4438.8915 L 1773.5964,4347.3296 V 4347.3296 L 1653.9354,4329.3253 L 1515.3486,4329.181 L 1234.0735,4248.151 L 647.73605,4248.5453 V 4248.5453 L 618.33384,4331.6415 L 458.74005,4332.9042 Z"
   id="malachite"
   inkscape:connector-curvature="0"
   sodipodi:nodetypes="cccccccccccccccccccccccccccccccc" /><path
   style="fill:lime;fill-opacity:1;stroke:none;stroke-width:3.77953;stroke-dasharray:none;stroke-opacity:1"
   d="M 6455.1565,4457.7498 L 6365.9521,4559.3928 L 6345.5392,4706.6528 L 6363.1278,4849.7615 L 6365.2078,4948.1515 L 6478.5208,4992.4135 L 6573.9509,5002.7481 L 6695.9875,5017.4356 L 6926.7376,4982.3536 L 7045.185,4928.1044 L 7077.5739,4710.4011 L 7031.8313,4580.8906 L 6926.7426,4520.2967 L 6769.3721,4458.8358 L 6681.4417,4428.4211 L 6567.0452,4418.6793 Z"
   id="sircaa"
   inkscape:connector-curvature="0"
   sodipodi:nodetypes="ccccccccccccccccc" /><path
   style="fill:yellow;fill-opacity:1;stroke:none;stroke-width:3.77953;stroke-dasharray:none;stroke-opacity:1"
   d="M 5414.3276,4612.6488 L 4578.2178,4610.8315 L 4578.3078,5036.9715 L 4523.1778,5079.8715 L 4372.5578,5155.8915 L 4420.6469,5205.8057 L 4441.097,5289.7078 L 4464.3409,5319.5637 L 4519.0652,5342.6644 L 4597.483,5393.8502 L 4643.0887,5468.8114 L 4638.0605,5525.7463 L 4612.1305,5591.6205 L 4615.6134,5660.501 L 4597.4507,5714.5702 L 4643.9886,5743.4679 L 4693.4795,5754.7358 L 4782.4904,5756.4003 L 4810.8449,5702.6455 L 4867.1697,5670.5469 L 4959.1951,5649.3667 L 5041.9744,5642.8342 L 5146.1284,5649.5784 L 5245.4759,5649.6284 L 5336.3634,5691.6328 L 5383.2334,5791.4326 L 5461.1021,5898.3236 L 5773.2697,5513.1552 L 5899.8282,5319.426 L 6042.2146,5127.5453 L 6254.2578,4904.0315 L 5889.8891,4573.0072 Z"
   id="wild_island"
   inkscape:connector-curvature="0"
   sodipodi:nodetypes="ccccccccccccccccccccccccccccccccc" /><path
   style="fill:lime;fill-opacity:1;stroke:none;stroke-width:3.77953;stroke-dasharray:none;stroke-opacity:1"
   d="M 3469.1324,5636.925 L 3511.2206,5546.1684 L 3510.9744,5476.1287 L 3373.346,5365.3778 L 3352.8972,5330.3181 L 3349.1155,5255.2976 L 3310.0471,5168.909 L 3338.663,5115.9429 L 3455.7763,5094.0693 L 3473.3778,4994.4315 L 3394.0678,4848.2815 L 3394.0978,4604.2499 L 2565.8728,4604.449 L 1906.3078,4603.3915 L 1733.7278,4793.4215 L 1720.6178,5096.9115 L 1655.1378,5229.4615 L 1653.1678,5408.4015 L 2065.2178,5647.8915 L 2928.6768,5647.4451 L 3002.7083,5672.979 L 3071.1161,5711.0231 L 3236.285,5731.5195 L 3306.2322,5706.298 L 3384.5615,5684.3465 L 3464.1975,5692.7662 Z"
   id="chemical_plant"
   inkscape:connector-curvature="0"
   sodipodi:nodetypes="ccccccccccccccccccccccccccc" /><path
   style="fill:aqua;fill-opacity:1;stroke:none;stroke-width:3.77953;stroke-dasharray:none;stroke-opacity:1"
   d="M 6979.1378,7116.9415 L 7059.4978,6962.0315 L 7228.4378,6789.7715 L 7428.9778,6761.1515 L 7633.3678,6867.3815 L 7976.4475,6909.1734 L 8009.0915,6753.8043 L 7985.3664,6547.1504 L 7917.3292,6339.694 L 7831.6231,6140.173 L 7732.6265,5971.0986 L 7699.1586,5814.621 L 7662.2482,5616.47 L 7670.9868,5231.4937 L 7581.031,5114.4501 L 7045.185,4928.1044 L 6926.7376,4982.3536 L 6695.9875,5017.4356 L 6573.9509,5002.7481 L 6478.5208,4992.4135 L 6365.2078,4948.1515 L 6254.2578,4904.0315 L 6042.2146,5127.5454 L 5899.8282,5319.426 L 5773.2697,5513.1552 L 5461.1021,5898.3236 L 5522.6414,5983.796 L 5493.0178,6081.4296 L 5481.0197,6202.4262 L 5589.7878,6306.6549 L 5746.9899,6399.9377 L 5966.3578,6478.2818 L 6088.5889,6623.4515 L 6268.1351,6764.5539 L 6434.6816,6917.2632 L 6523.1691,7080.0434 L 6708.6347,7183.449 L 6809.9748,7284.8182 Z"
   id="zaton"
   inkscape:connector-curvature="0"
   sodipodi:nodetypes="ccccccccccccccccccccccccccccccccccccccc" /><path
   style="fill:aqua;fill-opacity:1;stroke:none;stroke-width:3.77953;stroke-dasharray:none;stroke-opacity:1"
   d="M 3338.663,5115.9429 L 3310.0471,5168.909 L 3349.1155,5255.2976 L 3352.8972,5330.3181 L 3373.346,5365.3778 L 3510.9744,5476.1287 L 3511.2206,5546.1684 L 3469.1324,5636.925 L 3464.1974,5692.7662 L 3570.8577,5755.3404 L 3585.6427,5996.1583 L 3727.8299,6153.9392 L 3742.8678,6237.7315 L 3712.4278,6280.6915 L 3615.7978,6311.1215 L 3464.4298,6368.6594 V 6368.6594 L 3464.5465,6483.6087 L 3545.7126,6591.1755 L 3622.2463,6627.408 L 3818.1165,6640.4788 L 4082.3278,6640.4515 L 4201.7641,6624.2786 L 4228.1829,6589.7873 L 4228.8546,6500.6197 L 4260.4152,6462.9932 L 4303.6895,6385.7266 L 4337.7821,6293.2657 L 4378.3772,6219.567 L 4452.0609,6157.5709 L 4524.9184,6116.1431 L 4574.9863,6054.332 L 4578.648,5991.4273 L 4564.7578,5926.5635 L 4564.9678,5850.2857 L 4577.053,5765.8432 L 4597.4507,5714.5702 L 4615.6134,5660.501 L 4612.1305,5591.6205 L 4638.0605,5525.7463 L 4643.0887,5468.8114 L 4597.483,5393.8502 L 4519.0652,5342.6644 L 4464.3409,5319.5637 L 4441.097,5289.7078 L 4420.6469,5205.8057 L 4372.5578,5155.8915 L 4234.2578,5152.5115 L 4174.0978,5135.2115 L 4060.0978,5139.7515 L 3956.6278,5106.6015 L 3885.2978,5106.0315 L 3829.3278,5112.5915 L 3761.0946,5063.8583 L 3677.4704,5076.1216 L 3631.1029,5075.5832 L 3590.3929,5058.7347 L 3538.6896,4975.7983 L 3514.1052,4973.6423 L 3473.3778,4994.4315 L 3455.7763,5094.0693 Z"
   id="lesser_zone"
   inkscape:connector-curvature="0"
   sodipodi:nodetypes="cccccccccccccccccccccccccccccccccccccccccccccccccccccccccccccc" /><path
   style="fill:red;fill-opacity:1;stroke:none;stroke-width:3.77953;stroke-dasharray:none;stroke-opacity:1"
   d="M 924.82084,5593.7215 L 901.03884,5683.0315 L 833.95784,5742.1215 L 857.2497,5897.9672 L 970.42063,5988.1021 L 1067.5739,6128.8248 L 1164.211,6065.7219 L 1851.6878,6903.2565 L 1861.2678,6895.9665 L 1864.3928,6899.8815 L 1927.4178,6854.6215 L 1989.7278,6924.8815 L 2042.2678,6891.1915 L 2107.7178,6776.7215 L 2242.0565,6708.8218 L 2211.8628,6494.3865 L 2064.9578,6303.3315 L 2065.2178,5647.8915 L 1653.1678,5408.4015 V 5408.4015 L 1180.8878,5409.8715 L 880.70415,5449.0996 Z"
   id="duga"
   inkscape:connector-curvature="0"
   sodipodi:nodetypes="ccccccccccccccccccccccc" /><path
   style="fill:yellow;fill-opacity:1;stroke:none;stroke-width:3.77953;stroke-dasharray:none;stroke-opacity:1"
   d="M 2064.9578,6303.3315 L 2211.8628,6494.3865 L 2242.0565,6708.8218 L 2441.7892,6673.5733 L 2579.6329,6596.5283 L 2788.8307,6561.1651 L 2881.0906,6558.0291 L 2936.9678,6580.6964 L 3046.1205,6581.2774 L 3080.1056,6529.3233 L 3126.0674,6445.5058 L 3154.4492,6415.9475 L 3207.3321,6400.5644 L 3273.9619,6407.4985 L 3316.4235,6398.1142 L 3388.7782,6413.7706 L 3427.1727,6374.0024 L 3464.4298,6368.6594 L 3615.7978,6311.1215 L 3712.4278,6280.6915 L 3742.8678,6237.7315 L 3727.8299,6153.9392 L 3585.6427,5996.1583 L 3570.8577,5755.3404 V 5755.3404 L 3464.1974,5692.7662 L 3384.5615,5684.3465 L 3306.2322,5706.298 L 3236.285,5731.5195 L 3071.1161,5711.0231 L 3002.7083,5672.979 L 2928.6768,5647.4451 L 2065.2178,5647.8915 Z"
   id="orbita"
   inkscape:connector-curvature="0"
   sodipodi:nodetypes="cccccccccccccccccccccccccccccccccc" /><path
   style="fill:red;fill-opacity:1;stroke:none;stroke-width:3.77953;stroke-dasharray:none;stroke-opacity:1"
   d="M 4577.053,5765.8432 L 4564.9678,5850.2857 L 4564.7578,5926.5635 L 4578.648,5991.4273 L 4574.9863,6054.332 L 4524.9184,6116.1431 L 4452.0609,6157.5709 L 4378.3772,6219.567 L 4337.7821,6293.2657 L 4303.6895,6385.7266 L 4260.4152,6462.9932 L 4228.8546,6500.6197 L 4228.1829,6589.7873 L 4201.7641,6624.2786 L 4191.4696,6688.9203 L 4207.4144,6745.2222 L 4242.1989,6769.6714 L 4293.6748,6788.2663 L 4374.353,6830.1784 L 4443.1607,6907.2887 L 4491.7853,6947.0626 V 6947.0626 L 4753.9127,6946.884 L 4775.9154,6873.6963 L 4758.8913,6755.2621 L 4766.6964,6680.958 L 4781.7298,6653.343 L 4995.8353,6542.6186 L 5078.284,6536.1169 L 5113.2618,6503.1748 L 5088.8555,6441.2134 L 5084.585,6351.6501 L 5106.2181,6270.7583 L 5148.2678,6186.5602 L 5132.7118,6138.6071 L 4909.7967,6017.5509 L 4881.5554,5862.8203 L 4794.1056,5825.3777 L 4782.4904,5756.4003 L 4693.4795,5754.7358 L 4643.9886,5743.4679 L 4597.4507,5714.5702 Z"
   id="cordon"
   inkscape:connector-curvature="0"
   sodipodi:nodetypes="ccccccccccccccccccccccccccccccccccccccccccc" /><path
   style="fill:red;fill-opacity:1;stroke:none;stroke-width:3.77953;stroke-dasharray:none;stroke-opacity:1"
   d="M 7633.3678,6867.3815 L 7428.9778,6761.1515 L 7228.4378,6789.7715 L 7059.4978,6962.0315 L 6979.1378,7116.9415 L 6809.9748,7284.8182 L 6839.3773,7456.5665 L 6923.0238,7537.1325 L 7048.1159,7590.8335 L 7242.9995,7732.8745 L 7370.4143,7808.9563 L 7487.735,7824.6552 L 7621.6499,7806.0002 L 7770.5484,7810.0671 L 7868.2046,7855.0291 L 8003.7716,7896.8731 L 8056.9505,7851.9036 L 8030.6734,7773.1277 L 8003.4691,7667.4381 L 8069.4915,7468.8448 L 8054.6709,7375.7498 L 7986.0568,7266.3303 L 7941.441,7133.752 L 7932.3611,7017.6111 L 7976.4475,6909.1734 Z"
   id="swamp"
   inkscape:connector-curvature="0"
   sodipodi:nodetypes="cccccccccccccccccccccccccc" /><g
   inkscape:groupmode="layer"
   id="layer1"
   inkscape:label="Layer 1"
   sodipodi:insensitive="true"><image
     width="8192"
     height="8192"
     preserveAspectRatio="none"
     xlink:href="T_GLOBAL_MAP_BASE.8k.jpg"
     id="image1-7"
     x="0"
     y="0"
     style="opacity:0.641" /></g></svg>
