<?xml version="1.0" encoding="UTF-8" standalone="no"?>
<svg
   width="8192"
   height="8192"
   version="1.1"
   id="svg106"
   sodipodi:docname="T_Regions_Map.svg"
   inkscape:version="1.4 (86a8ad7, 2024-10-11)"
   xml:space="preserve"
   xmlns:inkscape="http://www.inkscape.org/namespaces/inkscape"
   xmlns:sodipodi="http://sodipodi.sourceforge.net/DTD/sodipodi-0.dtd"
   xmlns:xlink="http://www.w3.org/1999/xlink"
   xmlns="http://www.w3.org/2000/svg"
   xmlns:svg="http://www.w3.org/2000/svg"
   xmlns:rdf="http://www.w3.org/1999/02/22-rdf-syntax-ns#"
   xmlns:cc="http://creativecommons.org/ns#"
   xmlns:dc="http://purl.org/dc/elements/1.1/"
   xmlns:www="http://www.prognoz.ru"><sodipodi:namedview
   pagecolor="#ffffff"
   bordercolor="#666666"
   borderopacity="1"
   objecttolerance="10"
   gridtolerance="10"
   guidetolerance="10"
   inkscape:pageopacity="0"
   inkscape:pageshadow="2"
   inkscape:window-width="1920"
   inkscape:window-height="1009"
   id="namedview108"
   showgrid="false"
   inkscape:zoom="4"
   inkscape:cx="1942.5"
   inkscape:cy="4618.375"
   inkscape:window-x="-8"
   inkscape:window-y="-8"
   inkscape:window-maximized="1"
   inkscape:current-layer="svg106"
   inkscape:showpageshadow="2"
   inkscape:pagecheckerboard="0"
   inkscape:deskcolor="#d1d1d1" /><metadata
   id="metadata112"><rdf:RDF><cc:Work
       rdf:about=""><dc:format>image/svg+xml</dc:format><dc:type
         rdf:resource="http://purl.org/dc/dcmitype/StillImage" /></cc:Work></rdf:RDF></metadata>
           
           

  <www:MetaInfo><www:Geo>
    <www:GeoItem
   X="0"
   Y="0"
   Latitude="0"
   Longitude="0" />
    <www:GeoItem
   X="8192"
   Y="8192"
   Latitude="8192"
   Longitude="8192" />
  </www:Geo></www:MetaInfo>

           
           <defs
   id="defs110" /><path
   style="fill:red;fill-opacity:1;stroke:none;stroke-width:3.77953;stroke-dasharray:none;stroke-opacity:1"
   d="M 2130.16,1641.1129 L 2285.7013,1846.4158 L 2079.9677,1985.1765 V 1985.1765 L 2535.1683,2293.9895 L 2818.8186,2113.2948 L 3005.65,1982.18 L 3180.2052,1838.7465 L 2993.3302,1594.5509 L 2982.3402,1422.498 L 2892.5027,1347.0215 L 2705.2978,1337.1344 L 2208.1051,1337.4615 L 2140.1851,1395.2985 L 2252.0914,1565.8171 Z"
   id="prypiat"
   inkscape:connector-curvature="0"
   sodipodi:nodetypes="cccccccccccccccc"
   inkscape:label="pripyat" /><path
   style="fill:yellow;fill-opacity:1;stroke:none;stroke-width:3.77953;stroke-dasharray:none;stroke-opacity:1"
   d="M 3043.2343,2472.5022 L 3503.0507,2273.6758 V 2273.6758 L 4460.8222,2274.1717 V 2274.1717 L 4463.5,2135.46 L 4454.0285,1924.9701 L 4363.3184,1767.6358 L 4231.3586,1711.6616 L 3814.8469,1720.4189 L 3661.1135,1770.6055 L 3586.7934,1752.5206 L 3326.0503,1732.1223 L 3180.2052,1838.7465 L 3006.74,1981.9 L 2818.8186,2113.2948 Z"
   id="generators"
   inkscape:connector-curvature="0"
   sodipodi:nodetypes="ccccccccccccccccc" /><path
   style="fill:lime;fill-opacity:1;stroke:none;stroke-width:3.77953;stroke-dasharray:none;stroke-opacity:1"
   d="M 2577.59,2634.27 L 2761.12,2511.64 V 2511.64 L 3043.2343,2472.5022 L 2818.8186,2113.2948 L 2535.1683,2293.9895 L 2079.9677,1985.1765 L 1894.27,2064.45 L 1788.98,2182 L 1523.74,2643.92 L 1552.05,2725.73 Z"
   id="jupiter"
   inkscape:connector-curvature="0"
   sodipodi:nodetypes="cccccccccccc"><title
     id="title156">jupiter</title></path><path
   style="fill:red;fill-opacity:1;stroke:none;stroke-width:3.77953;stroke-dasharray:none;stroke-opacity:1"
   d="M 3043.2343,2472.5022 L 3332.3411,2891.8698 L 3332.9199,3075.5929 L 4579.2,3074.79 V 3074.79 L 4666.77,3060.97 L 4710.98,3017.6 L 4707.1674,2274.4962 L 4460.8222,2274.1717 L 3503.0507,2273.6758 Z"
   id="CNPP"
   inkscape:connector-curvature="0"
   sodipodi:nodetypes="ccccccccccc" /><path
   style="fill:aqua;fill-opacity:1;stroke:none;stroke-width:3.77953;stroke-dasharray:none;stroke-opacity:1"
   d="M 1619.93,3219.82 L 1788.57,3107.49 L 1945.0312,3072.9457 L 2180.0855,3105.6473 L 2341.6314,3135.4973 L 2623.83,3064.26 L 2802.28,2970.36 L 3060.7742,2952.049 L 3332.3411,2891.8698 L 3043.2343,2472.5022 V 2472.5022 V 2472.5022 V 2472.5022 L 2761.12,2511.64 V 2511.64 L 2577.59,2634.27 L 1552.05,2725.73 L 1545.09,2885.85 L 1453.8013,2963.7186 L 1450.5442,3022.5732 L 1437.5014,3077.1916 L 1414.6885,3142.3758 L 1417.1514,3274.7285 Z"
   id="yanov"
   inkscape:connector-curvature="0"
   sodipodi:nodetypes="cccccccccccccccccccccccc" /><path
   style="fill:yellow;fill-opacity:1;stroke:none;stroke-width:3.77953;stroke-dasharray:none;stroke-opacity:1"
   d="M 1419.91,3403.24 L 1427.4157,3516.0672 L 1450.2878,3617.6901 L 1556.8335,3792.3898 L 1981.9271,3578.3085 L 2781.0715,3578.8728 L 3241.9542,3578.4373 L 3438.5071,3542.9516 L 3372.3914,3355.1108 L 3332.4027,3105.2786 L 3332.9199,3075.5929 L 3332.3411,2891.8698 L 3060.7742,2952.049 L 2802.28,2970.36 L 2623.83,3064.26 L 2341.6314,3135.4973 L 2180.0855,3105.6473 L 1945.0312,3072.9457 L 1788.57,3107.49 L 1619.93,3219.82 L 1417.1514,3274.7285 Z"
   id="red_forest"
   inkscape:connector-curvature="0"
   sodipodi:nodetypes="cccccccccccccccccccccc" /><path
   style="fill:yellow;fill-opacity:1;stroke:none;stroke-width:3.77953;stroke-dasharray:none;stroke-opacity:1"
   d="M 4578.77,3489.17 V 3489.17 V 3489.17 V 3489.17 L 5668.3109,3970.4145 L 5776.2755,3989.4579 L 5829.3,3810.01 L 5932.81,3739.99 L 5957.25,3665.17 L 5809.45,3442.53 L 5758.67,3325.89 L 5636.67,3245.29 L 5324.89,3181.08 L 5207.38,3133.44 L 5138.48,3060.58 L 5116.81,3021.32 L 4710.98,3017.6 L 4666.77,3060.97 L 4579.2,3074.79 Z"
   id="cooling_towers"
   inkscape:connector-curvature="0"
   sodipodi:nodetypes="cccccccccccccccccccc" /><path
   style="fill:lime;fill-opacity:1;stroke:none;stroke-width:3.77953;stroke-dasharray:none;stroke-opacity:1"
   d="M 3332.4027,3105.2787 L 3372.3914,3355.1108 L 3438.5071,3542.9516 V 3542.9516 L 3583.35,3579.27 V 3579.27 L 4578.56,3578.01 L 4578.77,3489.17 L 4579.2,3074.79 L 3332.9199,3075.5929 Z"
   id="iron_forest"
   inkscape:connector-curvature="0"
   sodipodi:nodetypes="ccccccccccc" /><path
   style="fill:aqua;fill-opacity:1;stroke:none;stroke-width:3.77953;stroke-dasharray:none;stroke-opacity:1"
   d="M 4578.56,3578.01 L 4578.52,4609.49 L 5414.6298,4611.3073 L 5890.1913,4571.6657 L 5737.4981,4283.7096 L 5708.3336,4176.5806 L 5776.2755,3989.4579 L 5668.3109,3970.4145 L 4578.77,3489.17 Z"
   id="cement_factory"
   inkscape:connector-curvature="0"
   sodipodi:nodetypes="cccccccccc" /><path
   style="fill:aqua;fill-opacity:1;stroke:none;stroke-width:3.77953;stroke-dasharray:none;stroke-opacity:1"
   d="M 3394.4,4602.9084 L 3518.2328,4546.6958 L 3582.6908,4430.0297 L 3583.35,3579.27 L 3438.5071,3542.9516 L 3241.9542,3578.4373 L 2781.0715,3578.8728 V 3578.8728 L 2588.54,4081.12 L 2566.175,4603.1075 Z"
   id="rostok"
   inkscape:connector-curvature="0"
   sodipodi:nodetypes="ccccccccccc" /><path
   style="fill:red;fill-opacity:1;stroke:none;stroke-width:3.77953;stroke-dasharray:none;stroke-opacity:1"
   d="M 1660.8885,3927.034 L 1759.012,3950.4852 L 1868.2492,3982.3832 L 1881.4271,4096 L 1868.3927,4259.926 L 1773.8986,4347.9216 L 1832.65,4437.55 L 1871.05,4505.46 L 1906.61,4602.05 L 2566.175,4603.1075 L 2588.54,4081.12 L 2781.0715,3578.8728 L 1981.9271,3578.3085 L 1556.8335,3792.3898 Z"
   id="yantar"
   inkscape:connector-curvature="0"
   sodipodi:nodetypes="ccccccccccccccc" /><path
   style="fill:red;fill-opacity:1;stroke:none;stroke-width:3.77953;stroke-dasharray:none;stroke-opacity:1"
   d="M 3582.6908,4430.0297 L 3518.2328,4546.6958 L 3394.4,4602.9084 L 3394.37,4846.94 L 3423.57,4902.75 L 3473.68,4993.09 L 3514.4074,4972.3008 L 3538.9918,4974.4568 L 3590.6951,5057.3932 L 3631.4051,5074.2417 L 3677.7726,5074.7801 L 3761.3968,5062.5168 L 3829.63,5111.25 L 3885.6,5105.09 L 3956.93,5105.26 L 4060.4,5138.41 L 4174.4,5133.87 L 4234.56,5151.17 L 4372.86,5154.55 V 5154.55 L 4523.48,5078.53 V 5078.53 L 4578.61,5035.63 L 4578.52,4609.49 L 4578.56,3578.01 L 3583.35,3579.27 Z"
   id="garbage"
   inkscape:connector-curvature="0"
   sodipodi:nodetypes="ccccccccccccccccccccccccccc" /><path
   style="fill:yellow;fill-opacity:1;stroke:none;stroke-width:3.77953;stroke-dasharray:none;stroke-opacity:1"
   d="M 458.37146,4406.1348 L 491.97377,4488.4523 L 456.068,4631.7018 L 425.80454,4821.4214 L 402.46146,4893.4914 L 418.93877,5030.0331 L 455.28946,5124.2339 L 560.301,5125.95 L 671.128,5179.63 L 728.191,5347.29 L 794.873,5413.32 L 880.811,5448.93 V 5448.93 L 1181.19,5408.53 L 1653.47,5407.06 L 1655.44,5228.12 L 1720.92,5095.57 L 1734.03,4792.08 L 1906.61,4602.05 V 4602.05 L 1871.05,4505.46 L 1832.65,4437.55 L 1773.8986,4347.9216 V 4347.9216 L 1654.79,4328.26 L 1517.17,4328.53 L 1234.79,4247.5 L 647.762,4247.48 V 4247.48 L 618.636,4330.3 L 458.1633,4332.344 Z"
   id="malachite"
   inkscape:connector-curvature="0"
   sodipodi:nodetypes="cccccccccccccccccccccccccccccccc" /><path
   style="fill:lime;fill-opacity:1;stroke:none;stroke-width:3.77953;stroke-dasharray:none;stroke-opacity:1"
   d="M 6455.4587,4456.4083 L 6366.2543,4558.0513 L 6345.8414,4705.3113 L 6363.43,4848.42 L 6365.51,4946.81 L 6478.53,4992.2439 L 6574.1554,5003.6527 L 6695.9967,5016.973 L 6931.4343,4980.5726 L 7045.8778,4927.4465 L 7077.8761,4709.0596 L 7032.1335,4579.5491 L 6927.0448,4518.9552 L 6769.6743,4457.4943 L 6681.7439,4427.0796 L 6567.3474,4417.3378 Z"
   id="sircaa"
   inkscape:connector-curvature="0"
   sodipodi:nodetypes="ccccccccccccccccc" /><path
   style="fill:yellow;fill-opacity:1;stroke:none;stroke-width:3.77953;stroke-dasharray:none;stroke-opacity:1"
   d="M 5414.6298,4611.3073 L 4578.52,4609.49 L 4578.61,5035.63 L 4523.48,5078.53 L 4372.86,5154.55 L 4420.9491,5204.4642 L 4441.3992,5288.3663 L 4463.6358,5319.7331 L 4515.3383,5341.5747 L 4598.037,5394.5232 L 4642.6354,5467.7217 L 4638.3627,5524.4048 L 4612.4327,5590.279 L 4615.9156,5659.1595 L 4597.167,5713.6193 L 4644.0955,5743.103 L 4695.3442,5754.7615 L 4782.7926,5755.0588 L 4811.1471,5702.4759 L 4868.4485,5670.3773 L 4960.8645,5648.8065 L 5042.2766,5642.6646 L 5148.3837,5649.0182 L 5245.9734,5649.0682 L 5336.4703,5691.4632 L 5382.3637,5790.4817 L 5460.1286,5898.4598 L 5772.06,5515.22 L 6037.3985,5130.4256 L 6254.56,4902.69 L 5890.1913,4571.6657 Z"
   id="wild_island"
   inkscape:connector-curvature="0"
   sodipodi:nodetypes="cccccccccccccccccccccccccccccccc" /><path
   style="fill:lime;fill-opacity:1;stroke:none;stroke-width:3.77953;stroke-dasharray:none;stroke-opacity:1"
   d="M 3469.4346,5635.5835 L 3511.5228,5544.8269 L 3511.2766,5474.7872 L 3373.6482,5364.0363 L 3353.1994,5328.9766 L 3349.4177,5253.9561 L 3310.3493,5167.5675 L 3338.9652,5114.6014 L 3456.0785,5092.7278 L 3473.68,4993.09 L 3394.37,4846.94 L 3394.4,4602.9084 L 2566.175,4603.1075 L 1906.61,4602.05 L 1734.03,4792.08 L 1720.92,5095.57 L 1655.44,5228.12 L 1653.47,5407.06 L 2065.52,5646.55 L 2928.89,5647.35 L 3003.0105,5671.6375 L 3071.4183,5709.6816 L 3236.5872,5730.178 L 3306.5344,5704.9565 L 3384.8637,5683.005 L 3464.4997,5691.4247 Z"
   id="chemical_plant"
   inkscape:connector-curvature="0"
   sodipodi:nodetypes="ccccccccccccccccccccccccccc" /><path
   style="fill:aqua;fill-opacity:1;stroke:none;stroke-width:3.77953;stroke-dasharray:none;stroke-opacity:1"
   d="M 6979.44,7115.6 L 7059.8,6960.69 L 7228.74,6788.43 L 7429.28,6759.81 L 7633.67,6866.04 L 7975.7731,6909.0038 L 8009.1984,6751.8769 L 7985.278,6547.762 L 7918.022,6336.79 L 7831.73,6140.394 L 7731.962,5970.862 L 7662.874,5612.842 L 7670.4604,5231.5333 L 7580.7808,5114.7659 L 7045.8778,4927.4465 L 6931.4343,4980.5726 L 6695.9967,5016.973 L 6574.1554,5003.6527 L 6478.53,4992.2439 L 6365.51,4946.81 L 6254.56,4902.69 L 6037.3985,5130.4256 V 5130.4256 V 5130.4256 L 5897.41,5322.27 L 5772.06,5515.22 L 5460.1286,5898.4598 L 5522.7483,5983.8217 L 5493.32,6081.26 L 5480.15,6201.28 L 5590.09,6306.29 L 5744.53,6398.32 L 5966.66,6479.15 L 6087.51,6622.11 L 6266.78,6762.66 L 6435.26,6918.96 L 6522.69,7077.53 L 6710.89,7183.67 L 6811.52,7282.51 Z"
   id="zaton"
   inkscape:connector-curvature="0"
   sodipodi:nodetypes="cccccccccccccccccccccccccccccccccccccccc" /><path
   style="fill:aqua;fill-opacity:1;stroke:none;stroke-width:3.77953;stroke-dasharray:none;stroke-opacity:1"
   d="M 3338.9652,5114.6014 L 3310.3493,5167.5675 L 3349.4177,5253.9561 L 3353.1994,5328.9766 L 3373.6482,5364.0363 L 3511.2766,5474.7872 L 3511.5228,5544.8269 L 3469.4346,5635.5835 L 3464.4996,5691.4247 L 3571.1599,5753.9989 L 3585.9449,5994.8168 L 3728.1321,6152.5977 L 3743.17,6236.39 L 3712.73,6279.35 L 3616.1,6309.78 L 3464.3414,6368.0015 V 6368.0015 L 3465.63,6480.9 L 3544.55,6587.29 L 3624.27,6625.73 L 3827.61,6638.13 L 4082.63,6639.11 L 4201.2377,6624.3182 L 4228.4851,6588.4458 L 4229.1568,6499.2782 L 4260.7174,6461.6517 L 4303.9917,6384.3851 L 4338.0843,6291.9242 L 4378.6794,6218.2255 L 4452.3631,6156.2294 L 4525.2206,6114.8016 L 4575.2885,6052.9905 L 4578.9502,5990.0858 L 4565.06,5925.222 L 4565.27,5848.9442 L 4577.7458,5766.0642 L 4597.167,5713.6193 L 4615.9156,5659.1595 L 4612.4327,5590.279 L 4638.3627,5524.4048 L 4642.6354,5467.7217 L 4598.037,5394.5232 L 4515.3383,5341.5747 L 4463.6358,5319.7331 L 4441.3992,5288.3663 L 4420.9491,5204.4642 L 4372.86,5154.55 L 4234.56,5151.17 L 4174.4,5133.87 L 4060.4,5138.41 L 3956.93,5105.26 L 3885.6,5104.69 L 3829.63,5111.25 L 3761.3968,5062.5168 L 3677.7726,5074.7801 L 3631.4051,5074.2417 L 3590.6951,5057.3932 L 3538.9918,4974.4568 L 3514.4074,4972.3008 L 3473.68,4993.09 L 3456.0785,5092.7278 Z"
   id="lesser_zone"
   inkscape:connector-curvature="0"
   sodipodi:nodetypes="cccccccccccccccccccccccccccccccccccccccccccccccccccccccccccccc" /><path
   style="fill:red;fill-opacity:1;stroke:none;stroke-width:3.77953;stroke-dasharray:none;stroke-opacity:1"
   d="M 925.123,5592.38 L 901.341,5681.69 L 834.26,5740.78 L 856.96592,5897.5046 L 968.51308,5986.2082 L 1068.4285,6128.5882 L 1164.5132,6066.7282 L 1852.24,6901.54 L 1860.82,6895.5 L 1863.07,6898.54 L 1928.22,6853.03 L 1990.03,6923.54 L 2042.57,6889.85 L 2108.52,6774.63 L 2242.3587,6707.4803 L 2210.54,6492.17 L 2065.26,6301.99 L 2065.52,5646.55 L 1653.47,5407.06 V 5407.06 L 1181.19,5408.53 L 880.811,5448.93 Z"
   id="duga"
   inkscape:connector-curvature="0"
   sodipodi:nodetypes="ccccccccccccccccccccccc" /><path
   style="fill:yellow;fill-opacity:1;stroke:none;stroke-width:3.77953;stroke-dasharray:none;stroke-opacity:1"
   d="M 2065.26,6301.99 L 2210.54,6492.17 L 2242.3587,6707.4803 L 2443.98,6671.98 L 2580.65,6596.32 L 2789.4,6561.07 L 2880.5114,6558.3244 L 2937.1441,6579.9844 L 3046.4227,6579.9359 L 3077.9149,6532.7895 L 3126.7257,6445.5888 L 3152.7927,6416.2086 L 3207.6343,6400.6474 L 3274.086,6408.1157 L 3317.0818,6398.0191 L 3389.7527,6413.4501 L 3426.7627,6373.9073 L 3464.3414,6368.0015 L 3616.1,6309.78 L 3712.73,6279.35 L 3743.17,6236.39 L 3728.1321,6152.5977 L 3585.9449,5994.8168 L 3571.1599,5753.9989 V 5753.9989 L 3464.4996,5691.4247 L 3384.8637,5683.005 L 3306.5344,5704.9565 L 3236.5872,5730.178 L 3071.4183,5709.6816 L 3003.0105,5671.6375 L 2928.89,5647.35 L 2065.52,5646.55 Z"
   id="orbita"
   inkscape:connector-curvature="0"
   sodipodi:nodetypes="cccccccccccccccccccccccccccccccccc" /><path
   style="fill:red;fill-opacity:1;stroke:none;stroke-width:3.77953;stroke-dasharray:none;stroke-opacity:1"
   d="M 4577.7458,5766.0642 L 4565.27,5848.9442 L 4565.06,5925.222 L 4578.9502,5990.0858 L 4575.2885,6052.9905 L 4525.2206,6114.8016 L 4452.3631,6156.2294 L 4378.6794,6218.2255 L 4338.0843,6291.9242 L 4303.9917,6384.3851 L 4260.7174,6461.6517 L 4229.1568,6499.2782 L 4228.4851,6588.4458 L 4201.2377,6624.3182 L 4191.7718,6687.5788 L 4207.5785,6744.8474 L 4242.6392,6770.4015 L 4292.4578,6787.8915 L 4374.2409,6829.5274 L 4441.6675,6905.8091 L 4491.5351,6947.1022 V 6947.1022 L 4754.4911,6946.7855 L 4775.6652,6873.3215 L 4759.1935,6753.9206 L 4766.9986,6679.6165 L 4782.032,6652.0015 L 4994.9656,6542.6443 L 5078.1956,6535.9473 L 5114.1499,6503.3958 L 5088.7671,6441.4344 L 5084.3013,6350.8945 L 5106.7156,6269.2215 L 5148.57,6185.2187 L 5133.5999,6137.8515 L 4908.927,6016.6 L 4881.467,5862.2601 L 4793.4312,5824.2315 L 4782.7926,5755.0588 L 4695.3442,5754.7615 L 4644.0955,5743.103 L 4597.167,5713.6193 Z"
   id="cordon"
   inkscape:connector-curvature="0"
   sodipodi:nodetypes="ccccccccccccccccccccccccccccccccccccccccccc" /><path
   style="fill:red;fill-opacity:1;stroke:none;stroke-width:3.77953;stroke-dasharray:none;stroke-opacity:1"
   d="M 7633.67,6866.04 L 7429.28,6759.81 L 7228.74,6788.43 L 7059.8,6960.69 L 6979.44,7115.6 L 6811.52,7282.51 L 6839.6795,7455.225 L 6923.4641,7537.8626 L 7045.8568,7590.3192 L 7246.4782,7735.2619 L 7371.6832,7809.2721 L 7488.3134,7825.3853 L 7621.6759,7807.5589 L 7770.6553,7811.46 L 7868.8974,7855.6407 L 8003.2925,7897.2894 L 8056.4714,7851.5387 L 8004.1619,7668.4404 L 8069.5984,7469.0658 L 8054.9731,7375.1896 L 7989.8746,7266.9419 L 7940.9619,7131.6292 L 7933.2492,7016.6602 L 7975.7731,6909.0038 Z"
   id="swamp"
   inkscape:connector-curvature="0"
   sodipodi:nodetypes="ccccccccccccccccccccccccc" /><g
   inkscape:groupmode="layer"
   id="layer1"
   inkscape:label="Layer 1"
   sodipodi:insensitive="true"><image
     width="8192"
     height="8192"
     preserveAspectRatio="none"
     xlink:href="T_GLOBAL_MAP_BASE.8k.jpg"
     id="image1-7"
     x="0"
     y="0"
     style="opacity:0.641" /></g></svg>
