<?xml version="1.0" encoding="UTF-8" standalone="no"?>
<svg
   width="8192"
   height="8192"
   version="1.1"
   id="svg106"
   sodipodi:docname="T_Regions_Map.svg"
   inkscape:version="1.4 (86a8ad7, 2024-10-11)"
   xml:space="preserve"
   xmlns:inkscape="http://www.inkscape.org/namespaces/inkscape"
   xmlns:sodipodi="http://sodipodi.sourceforge.net/DTD/sodipodi-0.dtd"
   xmlns:xlink="http://www.w3.org/1999/xlink"
   xmlns="http://www.w3.org/2000/svg"
   xmlns:svg="http://www.w3.org/2000/svg"
   xmlns:rdf="http://www.w3.org/1999/02/22-rdf-syntax-ns#"
   xmlns:cc="http://creativecommons.org/ns#"
   xmlns:dc="http://purl.org/dc/elements/1.1/"
   xmlns:www="http://www.prognoz.ru"><sodipodi:namedview
   pagecolor="#ffffff"
   bordercolor="#666666"
   borderopacity="1"
   objecttolerance="10"
   gridtolerance="10"
   guidetolerance="10"
   inkscape:pageopacity="0"
   inkscape:pageshadow="2"
   inkscape:window-width="1920"
   inkscape:window-height="1009"
   id="namedview108"
   showgrid="false"
   inkscape:zoom="3.9711307"
   inkscape:cx="5839.3948"
   inkscape:cy="5366.8593"
   inkscape:window-x="-8"
   inkscape:window-y="-8"
   inkscape:window-maximized="1"
   inkscape:current-layer="svg106"
   inkscape:showpageshadow="2"
   inkscape:pagecheckerboard="0"
   inkscape:deskcolor="#d1d1d1" /><metadata
   id="metadata112"><rdf:RDF><cc:Work
       rdf:about=""><dc:format>image/svg+xml</dc:format><dc:type
         rdf:resource="http://purl.org/dc/dcmitype/StillImage" /></cc:Work></rdf:RDF></metadata>
           
           

  <www:MetaInfo><www:Geo>
    <www:GeoItem
   X="0"
   Y="0"
   Latitude="0"
   Longitude="0" />
    <www:GeoItem
   X="8192"
   Y="8192"
   Latitude="8192"
   Longitude="8192" />
  </www:Geo></www:MetaInfo>

           
           <defs
   id="defs110" /><path
   style="fill:red;fill-opacity:1;stroke:none;stroke-width:3.77953;stroke-dasharray:none;stroke-opacity:1"
   d="M 2126.9835,1636.1411 L 2282.5248,1841.444 L 2076.7912,1980.2047 V 1980.2047 L 2531.9918,2289.0177 L 2815.6421,2108.323 L 3002.4735,1977.2082 L 3177.0287,1833.7747 L 2990.1537,1589.5791 L 2979.1637,1417.5262 L 2889.3262,1342.0497 L 2702.1213,1332.1626 L 2204.9286,1332.4897 L 2137.0086,1390.3267 L 2248.9149,1560.8453 Z"
   id="prypiat"
   inkscape:connector-curvature="0"
   sodipodi:nodetypes="cccccccccccccccc"
   inkscape:label="pripyat" /><path
   style="fill:yellow;fill-opacity:1;stroke:none;stroke-width:3.77953;stroke-dasharray:none;stroke-opacity:1"
   d="M 3040.0578,2467.5304 L 3499.8742,2268.704 V 2268.704 L 4457.6457,2269.1999 V 2269.1999 L 4460.3235,2130.4882 L 4450.852,1919.9983 L 4360.1419,1762.664 L 4228.1821,1706.6898 L 3811.6704,1715.4471 L 3657.937,1765.6337 L 3583.6169,1747.5488 L 3322.8738,1727.1505 L 3177.0287,1833.7747 L 3003.5635,1976.9282 L 2815.6421,2108.323 Z"
   id="generators"
   inkscape:connector-curvature="0"
   sodipodi:nodetypes="ccccccccccccccccc" /><path
   style="fill:lime;fill-opacity:1;stroke:none;stroke-width:3.77953;stroke-dasharray:none;stroke-opacity:1"
   d="M 2574.4135,2629.2982 L 2757.9435,2506.6682 V 2506.6682 L 3040.0578,2467.5304 L 2815.6421,2108.323 L 2531.9918,2289.0177 L 2076.7912,1980.2047 L 1891.0935,2059.4782 L 1785.8035,2177.0282 L 1520.5635,2638.9482 L 1548.8735,2720.7582 Z"
   id="jupiter"
   inkscape:connector-curvature="0"
   sodipodi:nodetypes="cccccccccccc"><title
     id="title156">jupiter</title></path><path
   style="fill:red;fill-opacity:1;stroke:none;stroke-width:3.77953;stroke-dasharray:none;stroke-opacity:1"
   d="M 3040.0578,2467.5304 L 3329.1646,2886.898 L 3329.7434,3070.6211 L 4576.0235,3069.8182 V 3069.8182 L 4663.5935,3055.9982 L 4707.8035,3012.6282 L 4703.9909,2269.5244 L 4457.6457,2269.1999 L 3499.8742,2268.704 Z"
   id="CNPP"
   inkscape:connector-curvature="0"
   sodipodi:nodetypes="ccccccccccc" /><path
   style="fill:aqua;fill-opacity:1;stroke:none;stroke-width:3.77953;stroke-dasharray:none;stroke-opacity:1"
   d="M 1616.7535,3214.8482 L 1785.3935,3102.5182 L 1941.8547,3067.9739 L 2176.909,3100.6755 L 2338.4549,3130.5255 L 2620.6535,3059.2882 L 2799.1035,2965.3882 L 3057.5977,2947.0772 L 3329.1646,2886.898 L 3040.0578,2467.5304 V 2467.5304 V 2467.5304 V 2467.5304 L 2757.9435,2506.6682 V 2506.6682 L 2574.4135,2629.2982 L 1548.8735,2720.7582 L 1541.9135,2880.8782 L 1450.6248,2958.7468 L 1447.3677,3017.6014 L 1434.3249,3072.2198 L 1411.512,3137.404 L 1413.9749,3269.7567 Z"
   id="yanov"
   inkscape:connector-curvature="0"
   sodipodi:nodetypes="cccccccccccccccccccccccc" /><path
   style="fill:yellow;fill-opacity:1;stroke:none;stroke-width:3.77953;stroke-dasharray:none;stroke-opacity:1"
   d="M 1416.7335,3398.2682 L 1424.2392,3511.0954 L 1447.1113,3612.7183 L 1553.657,3787.418 L 1978.7506,3573.3367 L 2777.895,3573.901 L 3238.7777,3573.4655 L 3435.3306,3537.9798 L 3369.2149,3350.139 L 3329.2262,3100.3068 L 3329.7434,3070.6211 L 3329.1646,2886.898 L 3057.5977,2947.0772 L 2799.1035,2965.3882 L 2620.6535,3059.2882 L 2338.4549,3130.5255 L 2176.909,3100.6755 L 1941.8547,3067.9739 L 1785.3935,3102.5182 L 1616.7535,3214.8482 L 1413.9749,3269.7567 Z"
   id="red_forest"
   inkscape:connector-curvature="0"
   sodipodi:nodetypes="cccccccccccccccccccccc" /><path
   style="fill:yellow;fill-opacity:1;stroke:none;stroke-width:3.77953;stroke-dasharray:none;stroke-opacity:1"
   d="M 4575.5935,3484.1982 V 3484.1982 V 3484.1982 V 3484.1982 L 5665.1344,3965.4427 L 5773.099,3984.4861 L 5826.1235,3805.0382 L 5929.6335,3735.0182 L 5954.0735,3660.1982 L 5806.2735,3437.5582 L 5755.4935,3320.9182 L 5633.4935,3240.3182 L 5321.7135,3176.1082 L 5204.2035,3128.4682 L 5135.3035,3055.6082 L 5113.6335,3016.3482 L 4707.8035,3012.6282 L 4663.5935,3055.9982 L 4576.0235,3069.8182 Z"
   id="cooling_towers"
   inkscape:connector-curvature="0"
   sodipodi:nodetypes="cccccccccccccccccccc" /><path
   style="fill:lime;fill-opacity:1;stroke:none;stroke-width:3.77953;stroke-dasharray:none;stroke-opacity:1"
   d="M 3329.2262,3100.3069 L 3369.2149,3350.139 L 3435.3306,3537.9798 V 3537.9798 L 3580.1735,3574.2982 V 3574.2982 L 4575.3835,3573.0382 L 4575.5935,3484.1982 L 4576.0235,3069.8182 L 3329.7434,3070.6211 Z"
   id="iron_forest"
   inkscape:connector-curvature="0"
   sodipodi:nodetypes="ccccccccccc" /><path
   style="fill:aqua;fill-opacity:1;stroke:none;stroke-width:3.77953;stroke-dasharray:none;stroke-opacity:1"
   d="M 4575.3835,3573.0382 L 4575.3435,4604.5182 L 5411.4533,4606.3355 L 5887.0148,4566.6939 L 5734.3216,4278.7378 L 5705.1571,4171.6088 L 5773.099,3984.4861 L 5665.1344,3965.4427 L 4575.5935,3484.1982 Z"
   id="cement_factory"
   inkscape:connector-curvature="0"
   sodipodi:nodetypes="cccccccccc" /><path
   style="fill:aqua;fill-opacity:1;stroke:none;stroke-width:3.77953;stroke-dasharray:none;stroke-opacity:1"
   d="M 3391.2235,4597.9366 L 3515.0563,4541.724 L 3579.5143,4425.0579 L 3580.1735,3574.2982 L 3435.3306,3537.9798 L 3238.7777,3573.4655 L 2777.895,3573.901 V 3573.901 L 2585.3635,4076.1482 L 2562.9985,4598.1357 Z"
   id="rostok"
   inkscape:connector-curvature="0"
   sodipodi:nodetypes="ccccccccccc" /><path
   style="fill:red;fill-opacity:1;stroke:none;stroke-width:3.77953;stroke-dasharray:none;stroke-opacity:1"
   d="M 1657.712,3922.0622 L 1755.8355,3945.5134 L 1865.0727,3977.4114 L 1878.2506,4091.0282 L 1865.2162,4254.9542 L 1770.7221,4342.9498 L 1829.4735,4432.5782 L 1867.8735,4500.4882 L 1903.4335,4597.0782 L 2562.9985,4598.1357 L 2585.3635,4076.1482 L 2777.895,3573.901 L 1978.7506,3573.3367 L 1553.657,3787.418 Z"
   id="yantar"
   inkscape:connector-curvature="0"
   sodipodi:nodetypes="ccccccccccccccc" /><path
   style="fill:red;fill-opacity:1;stroke:none;stroke-width:3.77953;stroke-dasharray:none;stroke-opacity:1"
   d="M 3579.5143,4425.0579 L 3515.0563,4541.724 L 3391.2235,4597.9366 L 3391.1935,4841.9682 L 3420.3935,4897.7782 L 3470.5035,4988.1182 L 3511.2309,4967.329 L 3535.8153,4969.485 L 3587.5186,5052.4214 L 3628.2286,5069.2699 L 3674.5961,5069.8083 L 3758.2203,5057.545 L 3826.4535,5106.2782 L 3882.4235,5100.1182 L 3953.7535,5100.2882 L 4057.2235,5133.4382 L 4171.2235,5128.8982 L 4231.3835,5146.1982 L 4369.6835,5149.5782 V 5149.5782 L 4520.3035,5073.5582 V 5073.5582 L 4575.4335,5030.6582 L 4575.3435,4604.5182 L 4575.3835,3573.0382 L 3580.1735,3574.2982 Z"
   id="garbage"
   inkscape:connector-curvature="0"
   sodipodi:nodetypes="ccccccccccccccccccccccccccc" /><path
   style="fill:yellow;fill-opacity:1;stroke:none;stroke-width:3.77953;stroke-dasharray:none;stroke-opacity:1"
   d="M 455.195,4401.163 L 488.79731,4483.4805 L 452.89154,4626.73 L 422.62808,4816.4496 L 399.285,4888.5196 L 415.76231,5025.0613 L 452.113,5119.2621 L 557.12454,5120.9782 L 667.95154,5174.6582 L 725.01454,5342.3182 L 791.69654,5408.3482 L 877.63454,5443.9582 V 5443.9582 L 1178.0135,5403.5582 L 1650.2935,5402.0882 L 1652.2635,5223.1482 L 1717.7435,5090.5982 L 1730.8535,4787.1082 L 1903.4335,4597.0782 V 4597.0782 L 1867.8735,4500.4882 L 1829.4735,4432.5782 L 1770.7221,4342.9498 V 4342.9498 L 1651.6135,4323.2882 L 1513.9935,4323.5582 L 1231.6135,4242.5282 L 644.58554,4242.5082 V 4242.5082 L 615.45954,4325.3282 L 454.98684,4327.3722 Z"
   id="malachite"
   inkscape:connector-curvature="0"
   sodipodi:nodetypes="cccccccccccccccccccccccccccccccc" /><path
   style="fill:lime;fill-opacity:1;stroke:none;stroke-width:3.77953;stroke-dasharray:none;stroke-opacity:1"
   d="M 6452.2822,4451.4365 L 6363.0778,4553.0795 L 6342.6649,4700.3395 L 6360.2535,4843.4482 L 6362.3335,4941.8382 L 6475.3535,4987.2721 L 6570.9789,4998.6809 L 6692.8202,5012.0012 L 6928.2578,4975.6008 L 7042.7013,4922.4747 L 7074.6996,4704.0878 L 7028.957,4574.5773 L 6923.8683,4513.9834 L 6766.4978,4452.5225 L 6678.5674,4422.1078 L 6564.1709,4412.366 Z"
   id="sircaa"
   inkscape:connector-curvature="0"
   sodipodi:nodetypes="ccccccccccccccccc" /><path
   style="fill:yellow;fill-opacity:1;stroke:none;stroke-width:3.77953;stroke-dasharray:none;stroke-opacity:1"
   d="M 5411.4533,4606.3355 L 4575.3435,4604.5182 L 4575.4335,5030.6582 L 4520.3035,5073.5582 L 4369.6835,5149.5782 L 4417.7726,5199.4924 L 4438.2227,5283.3945 L 4460.4593,5314.7613 L 4512.1618,5336.6029 L 4594.8605,5389.5514 L 4639.4589,5462.7499 L 4635.1862,5519.433 L 4609.2562,5585.3072 L 4612.7391,5654.1877 L 4593.9905,5708.6475 L 4640.919,5738.1312 L 4692.1677,5749.7897 L 4779.6161,5750.087 L 4807.9706,5697.5041 L 4865.272,5665.4055 L 4957.688,5643.8347 L 5039.1001,5637.6928 L 5145.2072,5644.0464 L 5242.7969,5644.0964 L 5333.2938,5686.4914 L 5379.1872,5785.5099 L 5461.233,5898.0207 L 5773.3954,5513.0919 L 5902.7039,5315.1127 L 6038.0903,5132.482 L 6251.3835,4897.7182 L 5887.0148,4566.6939 Z"
   id="wild_island"
   inkscape:connector-curvature="0"
   sodipodi:nodetypes="ccccccccccccccccccccccccccccccccc" /><path
   style="fill:lime;fill-opacity:1;stroke:none;stroke-width:3.77953;stroke-dasharray:none;stroke-opacity:1"
   d="M 3466.2581,5630.6117 L 3508.3463,5539.8551 L 3508.1001,5469.8154 L 3370.4717,5359.0645 L 3350.0229,5324.0048 L 3346.2412,5248.9843 L 3307.1728,5162.5957 L 3335.7887,5109.6296 L 3452.902,5087.756 L 3470.5035,4988.1182 L 3391.1935,4841.9682 L 3391.2235,4597.9366 L 2562.9985,4598.1357 L 1903.4335,4597.0782 L 1730.8535,4787.1082 L 1717.7435,5090.5982 L 1652.2635,5223.1482 L 1650.2935,5402.0882 L 2062.3435,5641.5782 L 2925.7135,5642.3782 L 2999.834,5666.6657 L 3068.2418,5704.7098 L 3233.4107,5725.2062 L 3303.3579,5699.9847 L 3381.6872,5678.0332 L 3461.3232,5686.4529 Z"
   id="chemical_plant"
   inkscape:connector-curvature="0"
   sodipodi:nodetypes="ccccccccccccccccccccccccccc" /><path
   style="fill:aqua;fill-opacity:1;stroke:none;stroke-width:3.77953;stroke-dasharray:none;stroke-opacity:1"
   d="M 6976.2635,7110.6282 L 7056.6235,6955.7182 L 7225.5635,6783.4582 L 7426.1035,6754.8382 L 7630.4935,6861.0682 L 7972.5966,6904.032 L 8006.0219,6746.9051 L 7982.1015,6542.7902 L 7914.8455,6331.8182 L 7828.5535,6135.4222 L 7728.7855,5965.8902 L 7659.6975,5607.8702 L 7667.2839,5226.5615 L 7577.6043,5109.7941 L 7042.7013,4922.4747 L 6928.2578,4975.6008 L 6692.8202,5012.0012 L 6570.9789,4998.6809 L 6475.3535,4987.2721 L 6362.3335,4941.8382 L 6251.3835,4897.7182 L 6038.0903,5132.4821 L 5902.7039,5315.1127 L 5773.3954,5513.0919 L 5461.233,5898.0207 L 5519.5718,5978.8499 L 5490.1435,6076.2882 L 5476.9735,6196.3082 L 5586.9135,6301.3182 L 5741.3535,6393.3482 L 5963.4835,6474.1782 L 6084.3335,6617.1382 L 6263.6035,6757.6882 L 6432.0835,6913.9882 L 6519.5135,7072.5582 L 6707.7135,7178.6982 L 6808.3435,7277.5382 Z"
   id="zaton"
   inkscape:connector-curvature="0"
   sodipodi:nodetypes="cccccccccccccccccccccccccccccccccccccc" /><path
   style="fill:aqua;fill-opacity:1;stroke:none;stroke-width:3.77953;stroke-dasharray:none;stroke-opacity:1"
   d="M 3335.7887,5109.6296 L 3307.1728,5162.5957 L 3346.2412,5248.9843 L 3350.0229,5324.0048 L 3370.4717,5359.0645 L 3508.1001,5469.8154 L 3508.3463,5539.8551 L 3466.2581,5630.6117 L 3461.3231,5686.4529 L 3567.9834,5749.0271 L 3582.7684,5989.845 L 3724.9556,6147.6259 L 3739.9935,6231.4182 L 3709.5535,6274.3782 L 3612.9235,6304.8082 L 3461.1649,6363.0297 V 6363.0297 L 3462.4535,6475.9282 L 3541.3735,6582.3182 L 3621.0935,6620.7582 L 3824.4335,6633.1582 L 4079.4535,6634.1382 L 4198.0612,6619.3464 L 4225.3086,6583.474 L 4225.9803,6494.3064 L 4257.5409,6456.6799 L 4300.8152,6379.4133 L 4334.9078,6286.9524 L 4375.5029,6213.2537 L 4449.1866,6151.2576 L 4522.0441,6109.8298 L 4572.112,6048.0187 L 4575.7737,5985.114 L 4561.8835,5920.2502 L 4562.0935,5843.9724 L 4574.5693,5761.0924 L 4593.9905,5708.6475 L 4612.7391,5654.1877 L 4609.2562,5585.3072 L 4635.1862,5519.433 L 4639.4589,5462.7499 L 4594.8605,5389.5514 L 4512.1618,5336.6029 L 4460.4593,5314.7613 L 4438.2227,5283.3945 L 4417.7726,5199.4924 L 4369.6835,5149.5782 L 4231.3835,5146.1982 L 4171.2235,5128.8982 L 4057.2235,5133.4382 L 3953.7535,5100.2882 L 3882.4235,5099.7182 L 3826.4535,5106.2782 L 3758.2203,5057.545 L 3674.5961,5069.8083 L 3628.2286,5069.2699 L 3587.5186,5052.4214 L 3535.8153,4969.485 L 3511.2309,4967.329 L 3470.5035,4988.1182 L 3452.902,5087.756 Z"
   id="lesser_zone"
   inkscape:connector-curvature="0"
   sodipodi:nodetypes="cccccccccccccccccccccccccccccccccccccccccccccccccccccccccccccc" /><path
   style="fill:red;fill-opacity:1;stroke:none;stroke-width:3.77953;stroke-dasharray:none;stroke-opacity:1"
   d="M 921.94654,5587.4082 L 898.16454,5676.7182 L 831.08354,5735.8082 L 853.78946,5892.5328 L 965.33662,5981.2364 L 1065.252,6123.6164 L 1161.3367,6061.7564 L 1849.0635,6896.5682 L 1857.6435,6890.5282 L 1859.8935,6893.5682 L 1925.0435,6848.0582 L 1986.8535,6918.5682 L 2039.3935,6884.8782 L 2105.3435,6769.6582 L 2239.1822,6702.5085 L 2207.3635,6487.1982 L 2062.0835,6297.0182 L 2062.3435,5641.5782 L 1650.2935,5402.0882 V 5402.0882 L 1178.0135,5403.5582 L 877.63454,5443.9582 Z"
   id="duga"
   inkscape:connector-curvature="0"
   sodipodi:nodetypes="ccccccccccccccccccccccc" /><path
   style="fill:yellow;fill-opacity:1;stroke:none;stroke-width:3.77953;stroke-dasharray:none;stroke-opacity:1"
   d="M 2062.0835,6297.0182 L 2207.3635,6487.1982 L 2239.1822,6702.5085 L 2440.8035,6667.0082 L 2577.4735,6591.3482 L 2786.2235,6556.0982 L 2877.3349,6553.3526 L 2933.9676,6575.0126 L 3043.2462,6574.9641 L 3074.7384,6527.8177 L 3123.5492,6440.617 L 3149.6162,6411.2368 L 3204.4578,6395.6756 L 3270.9095,6403.1439 L 3313.9053,6393.0473 L 3386.5762,6408.4783 L 3423.5862,6368.9355 L 3461.1649,6363.0297 L 3612.9235,6304.8082 L 3709.5535,6274.3782 L 3739.9935,6231.4182 L 3724.9556,6147.6259 L 3582.7684,5989.845 L 3567.9834,5749.0271 V 5749.0271 L 3461.3231,5686.4529 L 3381.6872,5678.0332 L 3303.3579,5699.9847 L 3233.4107,5725.2062 L 3068.2418,5704.7098 L 2999.834,5666.6657 L 2925.7135,5642.3782 L 2062.3435,5641.5782 Z"
   id="orbita"
   inkscape:connector-curvature="0"
   sodipodi:nodetypes="cccccccccccccccccccccccccccccccccc" /><path
   style="fill:red;fill-opacity:1;stroke:none;stroke-width:3.77953;stroke-dasharray:none;stroke-opacity:1"
   d="M 4574.5693,5761.0924 L 4562.0935,5843.9724 L 4561.8835,5920.2502 L 4575.7737,5985.114 L 4572.112,6048.0187 L 4522.0441,6109.8298 L 4449.1866,6151.2576 L 4375.5029,6213.2537 L 4334.9078,6286.9524 L 4300.8152,6379.4133 L 4257.5409,6456.6799 L 4225.9803,6494.3064 L 4225.3086,6583.474 L 4198.0612,6619.3464 L 4188.5953,6682.607 L 4204.402,6739.8756 L 4239.4627,6765.4297 L 4289.2813,6782.9197 L 4371.0644,6824.5556 L 4438.491,6900.8373 L 4488.3586,6942.1304 V 6942.1304 L 4751.3146,6941.8137 L 4772.4887,6868.3497 L 4756.017,6748.9488 L 4763.8221,6674.6447 L 4778.8555,6647.0297 L 4991.7891,6537.6725 L 5075.0191,6530.9755 L 5110.9734,6498.424 L 5085.5906,6436.4626 L 5081.1248,6345.9227 L 5103.5391,6264.2497 L 5145.3935,6180.2469 L 5130.4234,6132.8797 L 4905.7505,6011.6282 L 4878.2905,5857.2883 L 4790.2547,5819.2597 L 4779.6161,5750.087 L 4692.1677,5749.7897 L 4640.919,5738.1312 L 4593.9905,5708.6475 Z"
   id="cordon"
   inkscape:connector-curvature="0"
   sodipodi:nodetypes="ccccccccccccccccccccccccccccccccccccccccccc" /><path
   style="fill:red;fill-opacity:1;stroke:none;stroke-width:3.77953;stroke-dasharray:none;stroke-opacity:1"
   d="M 7630.4935,6861.0682 L 7426.1035,6754.8382 L 7225.5635,6783.4582 L 7056.6235,6955.7182 L 6976.2635,7110.6282 L 6808.3435,7277.5382 L 6836.503,7450.2532 L 6920.2876,7532.8908 L 7042.6803,7585.3474 L 7243.3017,7730.2901 L 7368.5067,7804.3003 L 7485.1369,7820.4135 L 7618.4994,7802.5871 L 7767.4788,7806.4882 L 7865.7209,7850.6689 L 8000.116,7892.3176 L 8053.2949,7846.5669 L 8000.9854,7663.4686 L 8066.4219,7464.094 L 8051.7966,7370.2178 L 7986.6981,7261.9701 L 7937.7854,7126.6574 L 7930.0727,7011.6884 L 7972.5966,6904.032 Z"
   id="swamp"
   inkscape:connector-curvature="0"
   sodipodi:nodetypes="ccccccccccccccccccccccccc" /><g
   inkscape:groupmode="layer"
   id="layer1"
   inkscape:label="Layer 1"
   sodipodi:insensitive="true"><image
     width="8192"
     height="8192"
     preserveAspectRatio="none"
     xlink:href="T_GLOBAL_MAP_BASE.8k.jpg"
     id="image1-7"
     x="0"
     y="0"
     style="opacity:0.641" /></g></svg>
